<svg width="21" height="36" viewBox="0 0 21 36" fill="none" xmlns="http://www.w3.org/2000/svg">
    <path d="M1.757 35.994a1.838 1.838 0 0 1-.677-.12 1.744 1.744 0 0 1-.573-.36A1.625 1.625 0 0 1 0 34.344c0-.437.182-.856.507-1.17l16.223-15.18L.507 2.814A1.625 1.625 0 0 1 0 1.644C0 1.208.182.788.507.474A1.862 1.862 0 0 1 1.757 0c.467 0 .916.17 1.25.474l17.474 16.35c.325.314.507.733.507 1.17 0 .437-.182.857-.507 1.17L3.008 35.514a1.744 1.744 0 0 1-.573.36 1.838 1.838 0 0 1-.678.12z" fill="#666"/>
</svg>
