<?xml version="1.0" encoding="utf-8"?>
<!-- Generator: Adobe Illustrator 20.1.0, SVG Export Plug-In . SVG Version: 6.00 Build 0)  -->
<svg version="1.1" id="logos" xmlns="http://www.w3.org/2000/svg" xmlns:xlink="http://www.w3.org/1999/xlink" x="0px" y="0px"
	 viewBox="0 0 125 40" enable-background="new 0 0 125 40" xml:space="preserve">
<g>
	<g>
		<path d="M53.251,31.313c-1.976,0-3.583,1.607-3.583,3.583s1.607,3.583,3.583,3.583s3.583-1.607,3.583-3.583
			S55.227,31.313,53.251,31.313z M53.251,37.595c-1.488,0-2.699-1.211-2.699-2.699c0-1.488,1.211-2.699,2.699-2.699
			s2.699,1.211,2.699,2.699C55.95,36.384,54.739,37.595,53.251,37.595z"/>
		<path d="M51.631,3.141c-0.457,0-0.906,0.057-1.337,0.168C49.491,1.368,47.577,0,45.349,0c-1.18,0-2.299,0.377-3.236,1.089
			l-0.025,0.019L31.495,11.84L20.449,1.463l-0.037-0.031c-1.177-0.886-2.584-1.348-4.057-1.333
			c-1.775,0.016-3.434,0.713-4.671,1.961c-0.484,0.489-0.884,1.042-1.19,1.641C8.937,3.819,7.492,4.466,6.368,5.56
			c-1.283,1.25-1.993,2.935-2.001,4.744c-0.006,1.495,0.473,2.909,1.384,4.089l0.014,0.018l14.648,15.347
			c0.842,1.056,1.286,2.384,1.252,3.74c-0.025,0.985-0.307,1.914-0.781,2.724c-0.986-0.226-1.898-0.709-2.647-1.414L6.193,23.018
			c-0.761-0.809-1.834-1.214-2.945-1.113c-1.703,0.155-3.062,1.503-3.23,3.204c-0.101,1.019,0.235,2.033,0.922,2.783l10.396,10.294
			l0.008,0.008C12.585,39.361,14.199,40,15.901,40c0.037,0,0.075,0,0.112-0.001c1.714-0.028,3.335-0.715,4.564-1.932
			c0.274-0.272,0.522-0.563,0.742-0.871c0.319,0.041,0.644,0.06,0.972,0.055c1.72-0.027,3.345-0.716,4.576-1.941
			c1.231-1.225,1.929-2.846,1.966-4.565c0.036-1.726-0.586-3.376-1.753-4.644L11.853,10.274c-0.787-1.017-1.203-2.236-1.203-3.526
			c0-0.776,0.147-1.513,0.416-2.184c0.027,0,0.055,0.001,0.082,0.001c1.455,0.032,2.832,0.608,3.877,1.618l8.398,8.25
			c1.891,1.857,4.943,1.834,6.805-0.052l1.29-1.307l1.693,1.59c1.721,1.617,4.376,1.574,6.044-0.097l9.219-9.235
			c0.37-0.37,0.793-0.666,1.251-0.883c0.059,0.29,0.091,0.59,0.091,0.897l-0.147,19.243c0,1.976,1.607,3.583,3.583,3.583
			s3.583-1.607,3.583-3.579l0.147-16.102C56.981,5.541,54.581,3.141,51.631,3.141z M15.999,39.116
			c-1.509,0.021-2.947-0.53-4.046-1.563L1.584,27.287c-0.52-0.572-0.764-1.314-0.687-2.091c0.127-1.28,1.149-2.294,2.431-2.411
			c0.841-0.077,1.653,0.231,2.227,0.845l12.072,11.816c0.782,0.736,1.712,1.261,2.718,1.55C19.3,38.261,17.731,39.087,15.999,39.116
			z M11.17,10.835l0.014,0.018l15.248,15.849c1.009,1.099,1.548,2.528,1.517,4.024c-0.064,3.062-2.609,5.593-5.672,5.642
			c-0.15,0.002-0.299-0.001-0.447-0.01c0.446-0.873,0.695-1.838,0.72-2.837c0.039-1.57-0.478-3.108-1.458-4.329l-0.012-0.015
			L6.437,13.835c-0.781-1.019-1.191-2.238-1.186-3.527c0.006-1.57,0.622-3.031,1.734-4.115c0.862-0.84,1.944-1.376,3.119-1.559
			C9.882,5.306,9.766,6.018,9.766,6.749C9.766,8.245,10.252,9.658,11.17,10.835z M29.599,13.761c-1.52,1.54-4.014,1.559-5.557,0.043
			l-8.4-8.252c-1.127-1.09-2.586-1.741-4.14-1.853c0.998-1.625,2.784-2.697,4.862-2.716c0.018,0,0.037,0,0.055,0
			c1.253,0,2.443,0.394,3.444,1.142l11.012,10.346L29.599,13.761z M47.848,4.708l-9.219,9.235c-1.329,1.331-3.443,1.365-4.814,0.077
			l-1.677-1.575L42.672,1.774c0.777-0.583,1.702-0.891,2.677-0.891c1.842,0,3.428,1.121,4.109,2.716
			C48.866,3.863,48.321,4.236,47.848,4.708z M55.95,24.589c0,1.488-1.211,2.699-2.699,2.699s-2.699-1.211-2.699-2.696L50.699,5.35
			c0-0.412-0.047-0.812-0.135-1.197c0.345-0.084,0.703-0.128,1.068-0.128c2.463,0,4.466,2.004,4.466,4.462L55.95,24.589z"/>
		<polygon points="70.462,9.047 72.476,11.909 74.65,9.03 74.65,13.595 75.631,13.595 75.631,7.378 74.667,7.378 72.504,10.243 
			70.487,7.378 69.48,7.378 69.48,13.595 70.462,13.595 		"/>
		<path d="M65.783,12.679c-1.293,0-1.906-0.606-2.063-0.791l-0.749,0.634c0.226,0.267,1.097,1.139,2.812,1.139
			c1.734,0,2.437-0.836,2.517-1.619c0.151-1.472-1.321-1.841-2.395-2.111c-0.982-0.247-1.628-0.444-1.661-0.917
			c-0.012-0.183,0.039-0.329,0.16-0.459c0.244-0.261,0.747-0.423,1.313-0.423c0.861,0,1.783,0.707,1.793,0.714l0.604-0.774
			c-0.048-0.038-1.194-0.922-2.396-0.922c-0.854,0-1.594,0.268-2.03,0.735c-0.307,0.329-0.453,0.743-0.422,1.196
			c0.083,1.22,1.368,1.543,2.401,1.802c1.271,0.319,1.712,0.527,1.658,1.059C67.287,12.298,66.863,12.679,65.783,12.679z"/>
		<path d="M65.881,29.063c-1.006-0.24-1.428-0.399-1.435-0.757c-0.003-0.16,0.043-0.283,0.144-0.386
			c0.217-0.221,0.674-0.354,1.221-0.354c0.83,0,1.702,0.648,1.711,0.654l0.711-0.939c-0.048-0.036-1.191-0.893-2.422-0.893
			c-0.883,0-1.615,0.251-2.062,0.707c-0.324,0.33-0.49,0.757-0.481,1.234c0.026,1.327,1.363,1.647,2.339,1.88
			c1.233,0.295,1.527,0.473,1.495,0.909c-0.019,0.259-0.409,0.637-1.411,0.608c-1.247-0.034-1.834-0.686-1.897-0.76l-0.899,0.761
			c0.224,0.264,1.084,1.131,2.764,1.177c0.046,0.001,0.092,0.002,0.137,0.002c1.856,0,2.434-1.061,2.481-1.703
			C68.389,29.662,66.88,29.302,65.881,29.063z"/>
		<path d="M66.568,20.687h1.285v1.123c-0.381,0.258-0.838,0.398-1.313,0.398c-1.238,0-2.245-0.947-2.245-2.11
			c0-1.164,1.007-2.11,2.245-2.11c0.605,0,1.173,0.223,1.598,0.628l0.812-0.853c-0.645-0.615-1.501-0.953-2.41-0.953
			c-1.888,0-3.423,1.475-3.423,3.288c0,1.813,1.536,3.288,3.423,3.288c0.846,0,1.658-0.299,2.287-0.841l0.204-0.176v-2.86h-2.462
			V20.687z"/>
		<polygon points="71.607,17.063 70.429,17.063 70.429,23.149 75.141,23.149 75.141,21.971 71.607,21.971 		"/>
		<polygon points="98.287,21.971 98.287,17.063 97.109,17.063 97.109,23.149 101.82,23.149 101.82,21.971 		"/>
		<path d="M78.805,23.387c1.786,0,3.239-1.453,3.239-3.239s-1.453-3.239-3.239-3.239s-3.239,1.453-3.239,3.239
			S77.019,23.387,78.805,23.387z M78.805,18.086c1.137,0,2.061,0.925,2.061,2.061c0,1.137-0.925,2.061-2.061,2.061
			s-2.061-0.925-2.061-2.061C76.744,19.011,77.669,18.086,78.805,18.086z"/>
		<path d="M79.558,26.434c-1.786,0-3.239,1.453-3.239,3.239c0,1.786,1.453,3.239,3.239,3.239s3.239-1.453,3.239-3.239
			C82.797,27.887,81.344,26.434,79.558,26.434z M79.558,31.735c-1.137,0-2.061-0.925-2.061-2.061c0-1.137,0.925-2.061,2.061-2.061
			s2.061,0.925,2.061,2.061C81.619,30.81,80.694,31.735,79.558,31.735z"/>
		<path d="M88.677,21.186c0-0.623-0.293-1.178-0.747-1.538c0.211-0.294,0.336-0.654,0.336-1.042c0-0.99-0.805-1.795-1.795-1.795
			H83.29v2.413v1.178v2.748h3.424C87.797,23.149,88.677,22.269,88.677,21.186z M84.468,17.988h2.003c0.34,0,0.618,0.277,0.618,0.618
			s-0.277,0.618-0.618,0.618h-2.003V17.988z M84.468,20.401h2.003h0.243c0.433,0,0.785,0.352,0.785,0.785s-0.352,0.785-0.785,0.785
			h-2.246V20.401z"/>
		<path d="M92.252,16.908l-2.987,6.238h1.306l0.534-1.115h3.225l0.494,1.115h1.288l-2.762-6.238H92.252z M91.668,20.854l1.111-2.321
			l1.028,2.321H91.668z"/>
		<polygon points="73.844,29.085 70.709,29.085 70.709,26.603 69.531,26.603 69.531,32.969 70.709,32.969 70.709,30.262 
			73.844,30.262 73.844,32.969 75.021,32.969 75.021,26.603 73.844,26.603 		"/>
		<path d="M86.972,26.434h-2.866v6.4h1.178v-2.317h1.688c1.126,0,2.042-0.916,2.042-2.042C89.014,27.35,88.098,26.434,86.972,26.434
			z M86.972,29.34h-1.688v-1.728h1.688c0.476,0,0.864,0.388,0.864,0.864C87.836,28.952,87.448,29.34,86.972,29.34z"/>
	</g>
	<rect x="0" y="0" fill="none" width="125" height="40"/>
</g>
</svg>
