<?xml version="1.0" encoding="utf-8"?>
<!-- Generator: Adobe Illustrator 20.1.0, SVG Export Plug-In . SVG Version: 6.00 Build 0)  -->
<svg version="1.1" id="logos" xmlns="http://www.w3.org/2000/svg" xmlns:xlink="http://www.w3.org/1999/xlink" x="0px" y="0px"
	 viewBox="0 0 125 40" enable-background="new 0 0 125 40" xml:space="preserve">
<g>
	<g>
		<polygon points="18.194,11.643 9.622,0.467 0.715,0.467 0.715,19.878 7.942,19.878 7.774,8.618 16.765,19.878 25.084,19.878 
			25.084,0.467 18.026,0.467 		"/>
		<path d="M38.397,0c-10.71,0-12.757,4.474-12.757,9.663s1.809,9.806,12.614,9.806s12.043-3.951,12.043-7.045v-1.618h-7.664v0.524
			c0,1.19-0.476,2.713-4.189,2.713c-3.713,0-4.76-1.666-4.76-4.308s0.571-4.593,4.617-4.593s4.284,1.523,4.332,3.189h7.664V6.902
			C50.298,3.998,49.108,0,38.397,0z"/>
		<polygon points="51.107,0.467 51.107,6.854 57.342,6.712 57.342,19.878 65.815,19.878 65.815,6.616 71.908,6.759 71.908,0.467 		
			"/>
		<path d="M12.466,20.705h-2.79l-0.674,2.21H7.302l0.653-2.21h-2.79l-0.674,2.21H1.288l-0.527,2.202H3.82l-0.306,1.003H0.527
			L0,28.322h2.843l-0.649,2.13h2.881l0.629-2.13h1.65l-0.649,2.13h2.881l0.629-2.13h3.049l0.539-2.202h-2.938l0.297-1.003h2.864
			l0.539-2.202h-2.753L12.466,20.705z M8.026,26.121H6.355l0.297-1.003h1.68L8.026,26.121z"/>
		<path d="M16.057,23.499c0,0,0.286,7.679,0.286,10.059c0,2.38-0.127,6.442-0.127,6.442h8.868V20.705h-4.204
			C20.881,20.705,19.008,22.388,16.057,23.499z"/>
		<path d="M38.588,33.106c2.404-0.357,6.355-0.857,8.354-1.737c1.999-0.881,3.023-2.618,3.023-4.808s-1.571-6.14-10.496-6.14
			c-0.524,0-1.357,0-1.357,0c-4.347,0-11.71,0.635-11.71,6.442v1.587h7.806c0,0,0-0.571,0-1.46s0.952-1.714,2.666-1.714
			c1.714,0,2.166,0,2.309,0c1.523,0,2.594,0.452,2.594,1.785c0,1.333-1.19,1.761-7.116,2.904c-5.926,1.142-8.401,2.808-8.401,5.879
			s0,4.157,0,4.157h23.324v-5.49l-15.065,0.19C34.78,33.677,36.184,33.463,38.588,33.106z"/>
		<path d="M50.647,27.211h10.861c0,0-6.164,4.982-6.958,12.789h10.377c0-5.077,2.094-9.393,6.188-12.789v-6.506H50.647V27.211z"/>
	</g>
	<rect x="0" y="0" fill="none" width="125" height="40"/>
</g>
</svg>
